<?xml version="1.0" standalone="no"?>
<!DOCTYPE svg PUBLIC "-//W3C//DTD SVG 20010904//EN"
 "http://www.w3.org/TR/2001/REC-SVG-20010904/DTD/svg10.dtd">
<svg version="1.0" xmlns="http://www.w3.org/2000/svg"
 width="866.000000pt" height="650.000000pt" viewBox="0 0 866.000000 650.000000"
 preserveAspectRatio="xMidYMid meet">

<g transform="translate(0.000000,650.000000) scale(0.100000,-0.100000)"
fill="#000000" stroke="none">
<path d="M3557 5683 c-4 -7 -51 -89 -282 -488 -328 -569 -478 -832 -478 -840
0 -9 117 -212 658 -1149 l103 -178 24 38 c30 48 109 185 463 799 152 264 283
486 291 495 38 40 65 80 60 89 -5 7 26 56 45 71 3 3 12 22 20 43 7 20 17 37
22 37 4 0 18 21 29 48 12 26 28 52 36 58 8 6 12 16 8 22 -4 7 -1 12 8 12 9 0
15 3 14 8 -6 16 25 72 39 72 10 0 13 6 9 15 -5 14 5 40 27 69 31 43 106 166
109 182 2 11 11 18 21 16 9 -2 17 2 17 8 0 6 -4 8 -10 5 -5 -3 -10 -1 -10 4 0
6 4 11 8 11 4 0 16 21 27 46 10 26 26 56 35 68 9 11 30 46 46 76 16 30 32 57
37 58 4 2 7 9 7 16 0 6 13 27 29 46 15 19 38 59 51 88 12 28 26 52 30 52 4 0
13 18 20 40 7 22 17 40 22 40 4 0 8 7 8 15 0 13 -92 15 -769 15 -424 0 -772
-3 -774 -7z"/>
<path d="M5230 5430 c0 -5 5 -10 11 -10 5 0 7 5 4 10 -3 6 -8 10 -11 10 -2 0
-4 -4 -4 -10z"/>
<path d="M5280 5340 c0 -5 5 -10 11 -10 5 0 7 5 4 10 -3 6 -8 10 -11 10 -2 0
-4 -4 -4 -10z"/>
<path d="M5400 5126 c0 -2 8 -10 18 -17 15 -13 16 -12 3 4 -13 16 -21 21 -21
13z"/>
<path d="M5487 4979 c7 -7 15 -10 18 -7 3 3 -2 9 -12 12 -14 6 -15 5 -6 -5z"/>
<path d="M5725 4550 c-3 -5 -1 -10 4 -10 6 0 11 5 11 10 0 6 -2 10 -4 10 -3 0
-8 -4 -11 -10z"/>
<path d="M5762 4490 c0 -14 2 -19 5 -12 2 6 2 18 0 25 -3 6 -5 1 -5 -13z"/>
<path d="M5046 3392 c-27 -48 -86 -150 -131 -227 -45 -77 -187 -322 -315 -545
-128 -223 -253 -435 -277 -472 -23 -37 -43 -70 -43 -73 0 -3 -5 -11 -10 -18
-18 -21 -110 -178 -110 -188 0 -5 -4 -9 -10 -9 -5 0 -10 -5 -10 -10 0 -6 -18
-39 -40 -74 -22 -35 -40 -69 -40 -77 0 -11 -2 -11 -10 1 -8 12 -10 11 -10 -7
0 -24 -30 -85 -73 -148 -15 -22 -27 -46 -27 -55 0 -13 -1 -13 -11 0 -8 12 -9
11 -4 -6 3 -14 -3 -30 -20 -48 -14 -15 -25 -30 -25 -33 0 -18 -54 -112 -61
-107 -5 3 -9 -3 -9 -13 0 -10 -20 -51 -45 -91 -25 -40 -45 -75 -45 -80 0 -4
-9 -18 -20 -32 -11 -14 -20 -33 -20 -42 0 -10 -4 -18 -9 -18 -5 0 -26 -33 -46
-72 -21 -40 -44 -80 -51 -89 -8 -8 -14 -21 -14 -27 0 -9 185 -12 771 -10 l770
3 78 135 c263 456 506 877 589 1020 52 90 95 169 95 175 0 5 -51 98 -114 205
-124 214 -377 653 -540 937 -57 100 -106 182 -109 183 -3 0 -27 -39 -54 -88z"/>
<path d="M2858 2143 c7 -3 16 -2 19 1 4 3 -2 6 -13 5 -11 0 -14 -3 -6 -6z"/>
<path d="M2945 1910 c-3 -5 -1 -10 4 -10 6 0 11 5 11 10 0 6 -2 10 -4 10 -3 0
-8 -4 -11 -10z"/>
<path d="M2980 1849 c0 -5 5 -7 10 -4 6 3 10 8 10 11 0 2 -4 4 -10 4 -5 0 -10
-5 -10 -11z"/>
<path d="M3218 1442 c9 -10 19 -14 21 -9 2 5 -3 13 -10 18 -24 15 -30 10 -11
-9z"/>
<path d="M3546 887 c3 -10 9 -15 12 -12 3 3 0 11 -7 18 -10 9 -11 8 -5 -6z"/>
</g>
</svg>
