<?xml version="1.0" standalone="no"?>
<!DOCTYPE svg PUBLIC "-//W3C//DTD SVG 20010904//EN"
 "http://www.w3.org/TR/2001/REC-SVG-20010904/DTD/svg10.dtd">
<svg version="1.0" xmlns="http://www.w3.org/2000/svg"
 width="375.000000pt" height="422.000000pt" viewBox="0 0 375.000000 422.000000"
 preserveAspectRatio="xMidYMid meet">

<g transform="translate(0.000000,422.000000) scale(0.100000,-0.100000)"
fill="#000000" stroke="none">
<path d="M0 2110 l0 -2110 1875 0 1875 0 0 2110 0 2110 -1875 0 -1875 0 0
-2110z m2740 1109 c93 -42 156 -129 191 -264 24 -92 27 -381 4 -468 -32 -122
-100 -218 -183 -259 -46 -23 -54 -23 -457 -28 l-410 -5 0 -35 0 -35 258 -3
257 -2 0 -149 0 -148 -30 -41 c-35 -49 -126 -95 -233 -119 -106 -24 -376 -23
-482 1 -159 36 -253 104 -279 200 -19 71 -16 571 4 634 19 60 79 125 142 153
52 23 61 24 398 29 382 6 382 6 458 74 22 20 50 60 63 89 21 47 24 69 27 225
l4 172 111 0 c91 0 121 -4 157 -21z m-1742 -1936 c-3 -26 -6 -28 -51 -28 l-47
0 0 -147 0 -148 -30 0 -30 0 0 144 0 145 -47 3 c-44 3 -48 5 -51 31 l-3 27
131 0 131 0 -3 -27z m164 -49 l3 -77 55 77 c49 68 58 76 87 76 18 0 33 -3 33
-7 0 -3 -27 -42 -61 -85 -53 -68 -59 -81 -48 -96 7 -9 40 -47 72 -84 32 -38
55 -69 50 -70 -54 -10 -65 -3 -128 75 l-64 78 -3 -78 c-3 -76 -4 -78 -28 -78
l-25 0 -3 173 -2 172 29 0 30 0 3 -76z m466 49 c-2 -23 -8 -29 -35 -31 l-33
-3 0 -115 0 -114 34 0 c29 0 34 -3 34 -25 0 -30 -32 -38 -123 -32 -56 4 -60 6
-63 30 -3 25 0 27 32 27 l36 0 0 115 0 115 -30 0 c-32 0 -47 18 -36 45 4 12
25 15 96 15 l91 0 -3 -27z m219 -87 l78 -115 3 115 c3 114 3 114 27 114 l25 0
0 -173 0 -174 -22 2 c-17 1 -43 31 -100 115 l-78 113 0 -117 0 -117 -27 4 -28
4 -3 171 -2 172 24 0 c20 0 39 -21 103 -114z m451 89 c-3 -29 -26 -39 -68 -30
-17 4 -30 3 -30 -2 0 -4 -1 -71 -3 -148 l-2 -140 -27 -3 -28 -3 0 151 0 152
-50 -5 c-50 -5 -50 -5 -50 24 l0 29 130 0 130 0 -2 -25z m312 -5 l0 -30 -81 0
-80 0 3 -42 3 -41 73 2 72 2 0 -30 0 -31 -75 0 -75 0 0 -45 0 -45 81 0 80 0
-3 -27 -3 -28 -105 0 -105 0 -3 160 c-1 87 0 165 2 172 4 10 34 13 111 13
l105 0 0 -30z m280 17 c35 -17 62 -74 56 -116 -5 -36 -40 -81 -63 -81 -20 0
-16 -10 27 -61 49 -59 53 -72 18 -75 -23 -2 -37 10 -92 78 -37 44 -64 84 -60
89 3 5 20 9 37 9 42 0 77 25 77 55 0 37 -26 55 -79 55 l-47 0 3 -122 c4 -150
1 -163 -32 -166 l-25 -2 0 175 0 175 78 0 c42 0 88 -6 102 -13z m-1789 -497
c23 -13 26 -40 4 -40 -8 0 -15 5 -15 10 0 6 -13 10 -30 10 -23 0 -31 -5 -36
-25 -4 -15 -1 -32 6 -40 14 -17 46 -20 55 -5 3 6 -3 10 -15 10 -31 0 -19 24
13 28 51 6 47 -55 -4 -69 -35 -9 -68 6 -79 37 -25 65 38 117 101 84z m84 -34
c-2 -30 1 -49 10 -56 23 -19 35 -2 35 51 0 37 4 49 15 49 11 0 15 -13 15 -54
0 -67 -23 -91 -71 -74 -28 9 -29 13 -29 69 0 45 3 59 15 59 11 0 13 -10 10
-44z m185 34 c0 -6 -7 -13 -15 -16 -10 -4 -15 -20 -15 -45 0 -28 4 -39 15 -39
8 0 15 -4 15 -10 0 -5 -18 -10 -40 -10 -22 0 -40 5 -40 10 0 6 7 10 15 10 11
0 15 11 15 39 0 25 -5 41 -15 45 -29 11 -15 26 25 26 22 0 40 -5 40 -10z m208
-2 c-3 -7 -17 -14 -31 -16 -34 -4 -35 -22 -2 -22 16 0 25 -6 25 -15 0 -9 -9
-15 -25 -15 -20 0 -25 -5 -25 -25 0 -16 -6 -25 -15 -25 -12 0 -15 14 -15 65
l0 65 46 0 c32 0 44 -4 42 -12z m142 -8 c28 -28 26 -74 -5 -98 -26 -21 -33
-21 -72 -8 -40 13 -47 94 -10 118 22 14 67 8 87 -12z m138 8 c15 -15 15 -51 0
-66 -9 -9 -7 -16 7 -32 17 -18 17 -20 1 -20 -9 0 -27 12 -40 27 l-24 27 2 -23
c0 -14 -5 -26 -11 -28 -10 -4 -13 13 -13 61 l0 66 33 0 c18 0 38 -5 45 -12z
m218 4 c36 -23 17 -82 -27 -82 -12 0 -19 -7 -19 -20 0 -11 -7 -20 -15 -20 -12
0 -15 14 -15 65 l0 65 33 0 c17 0 37 -4 43 -8z m83 -19 l13 -27 16 27 c9 15
25 27 35 27 16 0 15 -4 -8 -37 -14 -21 -25 -50 -25 -65 0 -18 -5 -28 -15 -28
-9 0 -15 9 -15 25 0 13 -9 39 -20 57 -23 39 -25 48 -7 48 8 0 19 -12 26 -27z
m199 15 c-3 -7 -11 -13 -19 -13 -10 0 -16 -16 -19 -54 -7 -76 -28 -79 -32 -4
-2 42 -7 58 -17 58 -8 0 -16 6 -18 13 -4 9 11 12 52 12 41 0 56 -3 53 -12z
m60 -13 c-4 -21 -1 -25 18 -25 19 0 24 5 24 25 0 16 6 25 15 25 12 0 15 -14
15 -65 0 -51 -3 -65 -15 -65 -9 0 -15 10 -15 26 0 21 -4 25 -22 22 -17 -2 -22
-9 -20 -25 2 -16 -2 -23 -12 -23 -13 0 -16 13 -16 65 0 53 3 65 16 65 12 0 15
-7 12 -25z m222 5 c33 -33 21 -93 -23 -109 -31 -12 -77 7 -88 36 -12 33 -12
37 12 67 25 32 70 35 99 6z m102 -17 l23 -38 3 38 c2 24 8 37 18 37 11 0 14
-15 14 -65 0 -77 -16 -86 -52 -27 l-23 37 -3 -37 c-2 -25 -8 -38 -18 -38 -11
0 -14 15 -14 65 0 77 16 86 52 28z"/>
<path d="M2115 1965 c-19 -18 -25 -35 -25 -65 0 -55 34 -90 88 -90 82 0 123
94 67 154 -33 36 -95 37 -130 1z"/>
<path d="M1640 765 c-16 -19 -4 -52 22 -61 30 -9 62 29 48 57 -13 22 -52 25
-70 4z"/>
<path d="M1810 771 c-9 -18 -8 -21 9 -21 26 0 34 15 17 30 -12 9 -17 7 -26 -9z"/>
<path d="M2036 783 c-3 -4 -6 -15 -6 -26 0 -13 5 -17 16 -13 9 3 18 6 20 6 2
0 4 6 4 14 0 15 -24 28 -34 19z"/>
<path d="M2578 783 c-23 -6 -34 -49 -18 -68 26 -31 70 -11 70 32 0 25 -25 42
-52 36z"/>
</g>
</svg>
