<?xml version="1.0" encoding="UTF-8"?>
<svg version="1.1" xmlns="http://www.w3.org/2000/svg" width="212" height="238">
<path d="M0 0 C69.96 0 139.92 0 212 0 C212 78.54 212 157.08 212 238 C142.04 238 72.08 238 0 238 C0 159.46 0 80.92 0 0 Z " fill="#2E106B" transform="translate(0,0)"/>
<path d="M0 0 C69.96 0 139.92 0 212 0 C212 78.54 212 157.08 212 238 C142.04 238 72.08 238 0 238 C0 159.46 0 80.92 0 0 Z M145.4609375 9.7421875 C144 11 144 11 142.125 10.92578125 C141.42375 10.72339844 140.7225 10.52101563 140 10.3125 C139.19046875 10.10496094 138.3809375 9.89742187 137.546875 9.68359375 C136.70640625 9.45800781 135.8659375 9.23242188 135 9 C113.51382997 3.48229307 90.96571383 6.76312154 71.89453125 17.82324219 C65.96195026 21.50817007 59.55937822 25.78408563 55.203125 31.2578125 C51.75789081 33.98223528 48.27168247 33.58998279 44 33.625 C42.28239818 33.68030681 40.56493781 33.74019784 38.84765625 33.8046875 C37.59879639 33.84867676 37.59879639 33.84867676 36.32470703 33.89355469 C25.57680478 34.38568716 16.07990682 36.91109616 8.0625 44.375 C3.10802174 49.80856696 1.44897968 55.14444112 1.72265625 62.40234375 C3.42773734 78.3724695 14.15097819 91.1300189 25.75390625 101.44921875 C32.03705175 107.11434994 34.4850064 112.16154603 36.81640625 120.19921875 C43.19098775 140.66940952 59.3705226 155.19737116 77.72314453 164.99511719 C96.04776978 174.39347143 118.26586645 175.77440683 138 170 C140.10517858 169.00322001 142.18960891 167.96134055 144.25 166.875 C152.58259034 162.92236099 161.25627234 163.31038577 170.34472656 163.31396484 C183.56194678 163.26598623 195.65964122 161.15214446 205.4375 151.625 C209.59599877 144.63872207 211.13311141 138.14968592 210 130 C208.10018313 123.28027737 205.3927839 118.36480239 200.6875 113.25 C195.09056141 106.04498577 196.60855406 97.67945935 196.8984375 89.0390625 C197.24342062 77.48031242 195.00358313 66.83488633 189.890625 56.41796875 C188.88444862 53.68628814 188.90913642 52.65723179 190 50 C190.639375 49.05125 191.27875 48.1025 191.9375 47.125 C196.38149507 40.39167414 196.77998094 33.89730699 196 26 C193.76931372 16.34214237 189.45371209 9.94806242 181.1875 4.5625 C169.9284412 -1.1361505 154.17268935 -0.11933871 145.4609375 9.7421875 Z " fill="#FDFDFD" transform="translate(0,0)"/>
<path d="M0 0 C1.05316406 -0.00128906 2.10632813 -0.00257812 3.19140625 -0.00390625 C11.1615586 0.10419693 17.88739494 1.15386029 25.25 4.375 C25.09273438 5.22578125 24.93546875 6.0765625 24.7734375 6.953125 C23.22319839 17.08752394 23.29372753 25.75321334 29.25 34.375 C33.85278818 39.97298562 39.99236007 44.36106501 47.25 45.375 C49.414505 45.49019024 51.58246905 45.54983919 53.75 45.5625 C54.8534375 45.57667969 55.956875 45.59085938 57.09375 45.60546875 C60.23730187 45.53796807 60.23730187 45.53796807 62.90625 44.30078125 C65.25 43.375 65.25 43.375 67.39453125 43.296875 C70.5005936 45.1016607 70.98072812 48.357824 71.9375 51.625 C72.14955078 52.29402344 72.36160156 52.96304688 72.58007812 53.65234375 C78.04473221 71.20129599 75.89455362 87.45761603 67.57421875 103.6328125 C64.23756185 109.26294162 60.09776897 115.1436555 54.25 118.375 C52.19921875 118.109375 52.19921875 118.109375 50.25 117.375 C42.30846641 114.72782214 30.8816459 114.9639591 23.3125 118.625 C20.15280693 120.4305389 18.29634273 122.37284201 16.25 125.375 C14.47773547 125.09215982 12.707212 124.79839502 10.9375 124.5 C9.95136719 124.33757812 8.96523437 124.17515625 7.94921875 124.0078125 C5.25 123.375 5.25 123.375 2.25 121.375 C1.981875 120.59125 1.71375 119.8075 1.4375 119 C-0.2480393 115.27407101 -2.12448525 114.2207166 -5.75 112.375 C-9.40416639 111.63802526 -13.0268697 111.375 -16.75 111.375 C-17.08 112.035 -17.41 112.695 -17.75 113.375 C-25.89502844 108.99572497 -33.95780095 104.49380963 -41.625 99.3125 C-42.21297363 98.93818848 -42.80094727 98.56387695 -43.40673828 98.17822266 C-47.50627801 95.31522557 -48.47620194 92.9250928 -49.35009766 88.25024414 C-49.8810944 85.76026493 -50.94180599 84.11881814 -52.5 82.125 C-52.96921875 81.50109375 -53.4384375 80.8771875 -53.921875 80.234375 C-55.78197167 78.15271588 -55.78197167 78.15271588 -58.91015625 76.71875 C-61.75 74.375 -61.75 74.375 -62.31298828 72.44238281 C-62.52896658 69.97481753 -62.52840091 67.60048063 -62.4375 65.125 C-62.41824463 64.23619141 -62.39898926 63.34738281 -62.37915039 62.43164062 C-61.53814433 42.21855723 -51.47919341 26.26376979 -36.9375 12.6875 C-25.42234267 3.00742751 -14.73619377 -0.01867705 0 0 Z " fill="#13D77E" transform="translate(113.75,14.625)"/>
<path d="M0 0 C0.66 0.33 1.32 0.66 2 1 C1.31035156 1.47308594 0.62070313 1.94617188 -0.08984375 2.43359375 C-16.4677374 13.95877817 -28.2251551 28.93134053 -32 49 C-32.3507335 52.49681975 -32.50250859 55.98857951 -32.625 59.5 C-32.68300781 60.87671875 -32.68300781 60.87671875 -32.7421875 62.28125 C-32.83549564 64.52064528 -32.92128185 66.76005254 -33 69 C-31.87658203 69.37511719 -31.87658203 69.37511719 -30.73046875 69.7578125 C-27.76499973 71.10691 -26.39083441 72.39968036 -24.3125 74.875 C-23.73113281 75.55304688 -23.14976563 76.23109375 -22.55078125 76.9296875 C-20.1838411 80.08958242 -19.09586727 82.48136404 -18.37109375 86.40234375 C-16.46515019 91.40340933 -13.55066038 92.91857779 -9.0625 95.5625 C-7.92083374 96.26693237 -7.92083374 96.26693237 -6.75610352 96.9855957 C-0.95553801 100.53212213 4.94725911 103.90172875 11 107 C11.99 106.34 12.98 105.68 14 105 C19.97390839 104.65863381 24.33219526 106.24298643 29 110 C31 112 31 112 31.21484375 113.984375 C31.47394531 114.64953125 31.73304687 115.3146875 32 116 C35.00090086 117.37281781 35.00090086 117.37281781 38.5625 118.25 C39.76003906 118.58515625 40.95757812 118.9203125 42.19140625 119.265625 C43.58166016 119.62914062 43.58166016 119.62914062 45 120 C45.27199219 119.38382812 45.54398437 118.76765625 45.82421875 118.1328125 C48.25915038 113.71595978 53.33131077 111.46294077 58 110 C61.02527581 109.71598111 64.02596814 109.72059049 67.0625 109.75 C67.86494141 109.74226563 68.66738281 109.73453125 69.49414062 109.7265625 C73.67304596 109.74043438 76.27410403 110.04162261 80 112 C83.10599793 111.83040573 84.60449303 111.3208255 87.02734375 109.35546875 C94.16758893 101.25150949 98.4871457 92.14824575 102 82 C103.43656243 86.50600711 102.01547696 89.83784291 100.4375 94.125 C100.15865967 94.8890918 99.87981934 95.65318359 99.5925293 96.44042969 C94.88651852 108.94910451 86.27508191 122.36902457 75 130 C49.80563711 136.61808446 8.36194738 113.29884502 -12.47119141 101.34204102 C-18.87645987 97.56412344 -25.08532975 93.51713898 -31.16992188 89.24414062 C-33.02070897 87.98592143 -34.91245611 86.82832067 -36.828125 85.671875 C-45.50078911 80.16866497 -45.50078911 80.16866497 -46.83984375 74.3515625 C-46.874703 70.47056641 -46.54840833 66.83885831 -46 63 C-45.96777344 62.19691406 -45.93554688 61.39382812 -45.90234375 60.56640625 C-45.15207689 43.31026844 -34.39286198 25.97450174 -22.28125 14.40234375 C-15.51538323 8.50001524 -8.3372816 3.44690597 0 0 Z " fill="#018A73" transform="translate(85,20)"/>
<path d="M0 0 C3.3 0 6.6 0 10 0 C12.1652815 8.55362975 13.72997788 17.08696571 14.99731445 25.8137207 C15.245164 29.72997005 15.245164 29.72997005 17 33 C19.97 22.11 22.94 11.22 26 0 C29.63 0 33.26 0 37 0 C39.91131893 7.16632352 41.79287566 14.50998163 43.6875 22 C44.780625 26.29 45.87375 30.58 47 35 C48.98 23.45 50.96 11.9 53 0 C56.63 0 60.26 0 64 0 C60.1479277 24.55940514 60.1479277 24.55940514 58.375 34.25 C58.15585938 35.45140625 57.93671875 36.6528125 57.7109375 37.890625 C57.04910252 40.78524393 56.29603408 43.32997491 55 46 C52.29957819 47.3502109 50.07548373 47.24311007 47.0625 47.3125 C46.00160156 47.34988281 44.94070312 47.38726562 43.84765625 47.42578125 C41 47 41 47 39.28515625 45.56640625 C37.36793429 41.73778976 36.39851655 37.76961025 35.375 33.625 C35.1584375 32.78710938 34.941875 31.94921875 34.71875 31.0859375 C33.61289583 26.74443593 32.65047668 22.43769645 32 18 C31.74307373 19.05912598 31.74307373 19.05912598 31.48095703 20.13964844 C30.7005995 23.34433076 29.91288394 26.54716016 29.125 29.75 C28.85558594 30.86117187 28.58617188 31.97234375 28.30859375 33.1171875 C28.04433594 34.18710938 27.78007813 35.25703125 27.5078125 36.359375 C27.26691895 37.34389648 27.02602539 38.32841797 26.77783203 39.34277344 C26.06410646 41.78099978 25.3098137 43.82711152 24 46 C21.41246844 47.29376578 19.45041015 47.16832397 16.5625 47.1875 C15.59441406 47.20167969 14.62632813 47.21585938 13.62890625 47.23046875 C11 47 11 47 8 45 C4.8276 36.48952277 3.81759872 26.92146128 2.3125 18 C2.08755859 16.70449219 1.86261719 15.40898438 1.63085938 14.07421875 C0 4.52699943 0 4.52699943 0 0 Z " fill="#F9FDFB" transform="translate(84,70)"/>
<path d="M0 0 C4.05242362 1.87114458 7.73753025 4.30404101 11.5 6.6875 C13.67591941 8.04939763 15.85356882 9.40849992 18.03125 10.76757812 C19.65010493 11.78096846 21.26334511 12.8033227 22.875 13.828125 C43.05201737 26.19855827 66.74710235 36.16002929 89.98803711 40.81030273 C91.67063595 41.15266413 93.3378949 41.56900484 95 42 C95.33 42.66 95.66 43.32 96 44 C94.29274992 44.48301203 92.58414026 44.96121958 90.875 45.4375 C89.92367187 45.70433594 88.97234375 45.97117188 87.9921875 46.24609375 C67.68257919 51.3632666 47.86322648 47.45165177 30 37 C26.7598286 34.88905631 23.87150612 32.58739951 21 30 C20.10539062 29.19820312 19.21078125 28.39640625 18.2890625 27.5703125 C9.9847139 19.7209967 3.33541139 11.10144388 0 0 Z " fill="#018973" transform="translate(44,117)"/>
<path d="M0 0 C1.46373047 0.01353516 1.46373047 0.01353516 2.95703125 0.02734375 C4.06111328 0.04474609 4.06111328 0.04474609 5.1875 0.0625 C3.78573618 4.49692593 2.07919061 8.69065459 0.1875 12.9375 C-4.10852849 22.84794897 -5.50806701 32.40500492 -6.8125 43.0625 C-14.80387896 37.06896578 -22.36632333 27.93303842 -24.21875 17.8515625 C-24.4091628 13.45620029 -24.03320348 10.69062544 -21.25 7.1875 C-15.44403586 1.27198937 -8.05386555 -0.09703452 0 0 Z " fill="#FAF9FB" transform="translate(37.8125,45.9375)"/>
<path d="M0 0 C5.383125 -0.061875 5.383125 -0.061875 10.875 -0.125 C12.00534668 -0.14320801 13.13569336 -0.16141602 14.30029297 -0.18017578 C15.18861816 -0.1851709 16.07694336 -0.19016602 16.9921875 -0.1953125 C18.35899658 -0.21102295 18.35899658 -0.21102295 19.75341797 -0.22705078 C22 0 22 0 24 2 C24.1953125 4.27734375 24.1953125 4.27734375 24.125 6.9375 C24.10695312 7.81277344 24.08890625 8.68804687 24.0703125 9.58984375 C24.04710937 10.38519531 24.02390625 11.18054688 24 12 C24 12.99 24 13.98 24 15 C24.33 15.33 24.66 15.66 25 16 C25.16796875 17.9609375 25.16796875 17.9609375 25.1875 20.375 C25.20167969 21.16648438 25.21585938 21.95796875 25.23046875 22.7734375 C25 25 25 25 23 28 C20.66162109 28.34057617 20.66162109 28.34057617 17.7734375 28.29296875 C16.84450684 28.28547607 15.91557617 28.2779834 14.95849609 28.27026367 C13.77594238 28.24295166 12.59338867 28.21563965 11.375 28.1875 C5.744375 28.0946875 5.744375 28.0946875 0 28 C0 18.76 0 9.52 0 0 Z " fill="#31156D" transform="translate(132,189)"/>
<path d="M0 0 C1.98 0 3.96 0 6 0 C7.32 6.27 8.64 12.54 10 19 C11.60414105 13.12221498 11.60414105 13.12221498 13.20092773 7.24243164 C13.40145752 6.51403076 13.6019873 5.78562988 13.80859375 5.03515625 C14.01282959 4.2862915 14.21706543 3.53742676 14.42749023 2.76586914 C15 1 15 1 16 0 C17.99958364 -0.04080783 20.00045254 -0.04254356 22 0 C23.897759 4.33407123 25.01935234 8.7314924 26.125 13.3125 C26.74375 15.849375 27.3625 18.38625 28 21 C29.32 14.07 30.64 7.14 32 0 C33.98 0 35.96 0 38 0 C35.09550562 24.90449438 35.09550562 24.90449438 32 28 C30.125 28.30078125 30.125 28.30078125 28 28.3125 C27.29875 28.32925781 26.5975 28.34601563 25.875 28.36328125 C25.25625 28.24339844 24.6375 28.12351563 24 28 C22.05116862 25.07675293 21.51920273 23.48916982 20.875 20.125 C20.70742187 19.28195313 20.53984375 18.43890625 20.3671875 17.5703125 C20.00121155 15.00848085 19.93517096 12.58390011 20 10 C19.34 10 18.68 10 18 10 C17.96261719 10.6290625 17.92523438 11.258125 17.88671875 11.90625 C17.43322879 17.81051149 16.32023086 22.55250146 14 28 C8.04296875 28.48828125 8.04296875 28.48828125 6 28 C2.54783821 23.9209126 2.07248703 19.11641538 1.3125 14 C1.18294922 13.2059375 1.05339844 12.411875 0.91992188 11.59375 C0.30601013 7.69589765 -0.16761939 3.95901038 0 0 Z " fill="#2E136C" transform="translate(64,189)"/>
<path d="M0 0 C0.73734375 -0.01224609 1.4746875 -0.02449219 2.234375 -0.03710938 C4.15770058 -0.04237395 6.08054263 0.06546553 8 0.1875 C10 2.1875 10 2.1875 10.1953125 5.33984375 C10.17210937 6.58894531 10.14890625 7.83804687 10.125 9.125 C10.10695312 10.37152344 10.08890625 11.61804688 10.0703125 12.90234375 C10.04710937 13.98644531 10.02390625 15.07054687 10 16.1875 C10 18.367219 10.01350448 20.54695104 10.03515625 22.7265625 C10.04443042 24.08854059 10.0535396 25.45051981 10.0625 26.8125 C10.07087891 27.50601563 10.07925781 28.19953125 10.08789062 28.9140625 C10.09647478 30.67209817 10.05242467 32.43022519 10 34.1875 C8.4779041 35.7095959 7.11789918 35.31709521 5 35.3203125 C4.195625 35.32160156 3.39125 35.32289062 2.5625 35.32421875 C1.716875 35.32035156 0.87125 35.31648438 0 35.3125 C-0.845625 35.31636719 -1.69125 35.32023437 -2.5625 35.32421875 C-3.366875 35.32292969 -4.17125 35.32164063 -5 35.3203125 C-5.7425 35.31918457 -6.485 35.31805664 -7.25 35.31689453 C-9 35.1875 -9 35.1875 -10 34.1875 C-10.07179964 32.66821962 -10.08392007 31.14582518 -10.0625 29.625 C-10.05347656 28.79871094 -10.04445312 27.97242187 -10.03515625 27.12109375 C-10.02355469 26.48300781 -10.01195312 25.84492187 -10 25.1875 C-7.69 25.1875 -5.38 25.1875 -3 25.1875 C-3 26.1775 -3 27.1675 -3 28.1875 C-1.02 28.1875 0.96 28.1875 3 28.1875 C3 25.8775 3 23.5675 3 21.1875 C0.69 21.1875 -1.62 21.1875 -4 21.1875 C-4 18.8775 -4 16.5675 -4 14.1875 C-1.69 14.1875 0.62 14.1875 3 14.1875 C3 12.2075 3 10.2275 3 8.1875 C1.02 8.1875 -0.96 8.1875 -3 8.1875 C-3 8.8475 -3 9.5075 -3 10.1875 C-5.31 10.1875 -7.62 10.1875 -10 10.1875 C-10 7.2175 -10 4.2475 -10 1.1875 C-6.84044583 -0.39227708 -3.46536183 0.00302916 0 0 Z " fill="#F5F4F8" transform="translate(167,12.8125)"/>
<path d="M0 0 C2 1.0625 2 1.0625 3 3 C3.84273641 7.68186894 2.96640664 10.60273156 0.5625 14.5625 C-3.42102687 20.0200251 -8.06165356 23.98972852 -14.6953125 25.69140625 C-21.18686606 26.59038233 -21.18686606 26.59038233 -23.75390625 24.7265625 C-25.48626433 22.3262419 -25.59669647 20.08904483 -25.46875 17.18359375 C-24.13025044 10.94841665 -19.31290258 6.98956976 -14.25 3.5625 C-9.37639528 0.52064127 -5.84752468 -0.63378079 0 0 Z " fill="#008C74" transform="translate(98,34)"/>
<path d="M0 0 C6.93 0 13.86 0 21 0 C21 1.98 21 3.96 21 6 C16.38 6 11.76 6 7 6 C7 7.32 7 8.64 7 10 C10.96 10 14.92 10 19 10 C19 11.98 19 13.96 19 16 C15.04 16 11.08 16 7 16 C7 17.98 7 19.96 7 22 C11.62 22 16.24 22 21 22 C21 23.98 21 25.96 21 28 C14.07 28 7.14 28 0 28 C0 18.76 0 9.52 0 0 Z " fill="#2D136C" transform="translate(106,189)"/>
<path d="M0 0 C6.60313433 4.18068268 9.58196201 9.74588604 12 17 C12.92786198 24.57500435 11.09504199 30.73883737 6.62109375 36.8984375 C5.46136443 38.30597223 4.23702487 39.65988972 3 41 C2.01 40.505 2.01 40.505 1 40 C1.61875 39.278125 2.2375 38.55625 2.875 37.8125 C6.22797565 32.90193638 6.35037902 26.76111234 7 21 C5.88625 21.185625 4.7725 21.37125 3.625 21.5625 C0 22 0 22 -2 21 C-2.33 21.66 -2.66 22.32 -3 23 C-3 17.33333333 -3 11.66666667 -3 6 C-10.77452207 2.34140138 -19.08938518 1.52681555 -27.3984375 4.01953125 C-28.25695312 4.34308594 -29.11546875 4.66664062 -30 5 C-21.65652175 -4.35480895 -10.95997568 -5.30967743 0 0 Z " fill="#705C99" transform="translate(179,9)"/>
<path d="M0 0 C4.12072937 3.74289745 6.45989634 8.70654179 7.359375 14.19140625 C7.52799862 18.6346387 6.83791604 21.59450075 4 25 C-3.33990366 30.97434019 -10.94857601 31.333864 -20 31 C-19.14700232 29.85329616 -18.29250133 28.70771066 -17.4375 27.5625 C-16.88835937 26.82386719 -16.33921875 26.08523437 -15.7734375 25.32421875 C-14.64375855 23.84369238 -13.48476017 22.3847707 -12.2890625 20.95703125 C-6.96313595 14.53459041 -3.51428177 7.50924037 0 0 Z " fill="#F9F9FB" transform="translate(191,120)"/>
<path d="M0 0 C0.33 0 0.66 0 1 0 C1.01417969 0.60585938 1.02835938 1.21171875 1.04296875 1.8359375 C1.51176226 10.07149915 4.06504602 16.43046138 9.3125 22.8125 C10.6428125 23.8953125 10.6428125 23.8953125 12 25 C12.5053125 25.44085938 13.010625 25.88171875 13.53125 26.3359375 C20.08433856 31.30823716 28.07700784 31.35577612 36 32 C30.79571008 36.12754028 26.45739371 36.54238014 20 36 C12.2165982 34.56448258 6.33420271 30.52911929 1.6484375 24.1640625 C-1.87434631 18.36033953 -2.5613142 12.69660889 -2 6 C-1 2.5 -1 2.5 0 0 Z " fill="#028B74" transform="translate(136,29)"/>
<path d="M0 0 C1.33853027 -0.00193359 1.33853027 -0.00193359 2.70410156 -0.00390625 C10.25937173 0.11588902 16.59789337 1.50260605 23.625 4.375 C22.965 6.685 22.305 8.995 21.625 11.375 C20.47 10.983125 19.315 10.59125 18.125 10.1875 C16.29229458 9.58143128 14.45884358 8.97761613 12.625 8.375 C11.70847656 8.06973389 11.70847656 8.06973389 10.7734375 7.75830078 C3.1070837 5.21600257 -4.24706763 2.81042495 -12.375 2.375 C-8.23354383 -0.38597078 -4.87291712 -0.00716342 0 0 Z " fill="#15F8A8" transform="translate(115.375,14.625)"/>
<path d="M0 0 C1.17696425 2.28888574 1.98793066 4.25962332 2.75 6.6875 C3.0752063 7.68342163 3.0752063 7.68342163 3.40698242 8.69946289 C5.45016685 15.50444905 5.49112998 21.91681427 5 29 C2.34296845 27.67148422 2.23835602 26.52062429 1.1953125 23.7734375 C0.85886719 22.90589844 0.52242187 22.03835937 0.17578125 21.14453125 C-0.34435547 19.77361328 -0.34435547 19.77361328 -0.875 18.375 C-3.19645442 12.27566539 -5.59256574 6.57719061 -9 1 C-3.38364211 -1.652169 -3.38364211 -1.652169 0 0 Z " fill="#15F8A9" transform="translate(183,59)"/>
<path d="M0 0 C1.64574566 -0.02688151 3.29161413 -0.04634123 4.9375 -0.0625 C5.85402344 -0.07410156 6.77054688 -0.08570313 7.71484375 -0.09765625 C10 0 10 0 11 1 C11.09986975 3.84335048 11.13877881 6.65697163 11.125 9.5 C11.12886719 10.29792969 11.13273438 11.09585938 11.13671875 11.91796875 C11.12660767 17.87339233 11.12660767 17.87339233 10 19 C8.31391034 19.07205511 6.62499341 19.08386068 4.9375 19.0625 C4.01839844 19.05347656 3.09929687 19.04445312 2.15234375 19.03515625 C1.44207031 19.02355469 0.73179687 19.01195312 0 19 C-0.33 17.35 -0.66 15.7 -1 14 C1.64 14.33 4.28 14.66 7 15 C7 13.68 7 12.36 7 11 C5.68 11 4.36 11 3 11 C3 9.68 3 8.36 3 7 C4.32 7 5.64 7 7 7 C7 6.01 7 5.02 7 4 C4.36 4.33 1.72 4.66 -1 5 C-0.67 3.35 -0.34 1.7 0 0 Z " fill="#1FD983" transform="translate(161,180)"/>
<path d="M0 0 C0.8125 2.125 0.8125 2.125 1 5 C-1.45276585 8.57403024 -3.7496858 11.712026 -8 13 C-11.125 13.25 -11.125 13.25 -14 13 C-14.66 12.34 -15.32 11.68 -16 11 C-16 8.24194535 -15.58710258 6.61448929 -13.66015625 4.59765625 C-8.77597248 0.47774573 -6.32225871 -0.11707887 0 0 Z " fill="#008C74" transform="translate(172,109)"/>
<path d="M0 0 C0.99 0 1.98 0 3 0 C3 3.3 3 6.6 3 10 C3.66 10 4.32 10 5 10 C5 6.7 5 3.4 5 0 C5.99 0 6.98 0 8 0 C8 3.3 8 6.6 8 10 C8.66 10 9.32 10 10 10 C10 6.7 10 3.4 10 0 C10.99 0 11.98 0 13 0 C13 3.96 13 7.92 13 12 C8.71 12 4.42 12 0 12 C0 8.04 0 4.08 0 0 Z " fill="#28DA87" transform="translate(69,224)"/>
<path d="M0 0 C2.64 0 5.28 0 8 0 C8 3.96 8 7.92 8 12 C5.36 12 2.72 12 0 12 C0 8.04 0 4.08 0 0 Z " fill="#32DC8C" transform="translate(92,224)"/>
<path d="M0 0 C2.31 0 4.62 0 7 0 C7 3.96 7 7.92 7 12 C4.69 12 2.38 12 0 12 C0 8.04 0 4.08 0 0 Z " fill="#01D676" transform="translate(147,224)"/>
<path d="M0 0 C2.31 0 4.62 0 7 0 C7 3.96 7 7.92 7 12 C6.34 12 5.68 12 5 12 C5 10.35 5 8.7 5 7 C4.01 7 3.02 7 2 7 C2 8.65 2 10.3 2 12 C1.34 12 0.68 12 0 12 C0 8.04 0 4.08 0 0 Z " fill="#1FDA85" transform="translate(111,224)"/>
<path d="M0 0 C3.63 0 7.26 0 11 0 C11 1.98 11 3.96 11 6 C7.37 6 3.74 6 0 6 C0 4.02 0 2.04 0 0 Z " fill="#D6D3E0" transform="translate(139,194)"/>
<path d="M0 0 C3.63 0 7.26 0 11 0 C11 1.65 11 3.3 11 5 C7.37 5 3.74 5 0 5 C0 3.35 0 1.7 0 0 Z " fill="#FDFDFE" transform="translate(139,206)"/>
<path d="M0 0 C2.31 0 4.62 0 7 0 C7 3.96 7 7.92 7 12 C4.69 12 2.38 12 0 12 C0.66 11.34 1.32 10.68 2 10 C2.99 10 3.98 10 5 10 C5 7.36 5 4.72 5 2 C3.35 1.67 1.7 1.34 0 1 C0 0.67 0 0.34 0 0 Z " fill="#00D676" transform="translate(93,224)"/>
<path d="M0 0 C0.66 0 1.32 0 2 0 C2 3.3 2 6.6 2 10 C3.65 10 5.3 10 7 10 C7 10.66 7 11.32 7 12 C4.69 12 2.38 12 0 12 C0 8.04 0 4.08 0 0 Z " fill="#00D675" transform="translate(129,224)"/>
<path d="M0 0 C0.33 0 0.66 0 1 0 C1 3.96 1 7.92 1 12 C-0.65 12 -2.3 12 -4 12 C-3.67 11.34 -3.34 10.68 -3 10 C-2.34 10 -1.68 10 -1 10 C-1.020625 8.72125 -1.04125 7.4425 -1.0625 6.125 C-1.125 2.25 -1.125 2.25 0 0 Z " fill="#00D675" transform="translate(153,224)"/>
<path d="M0 0 C0.99 0 1.98 0 3 0 C3 2.64 3 5.28 3 8 C2.01 8 1.02 8 0 8 C0 5.36 0 2.72 0 0 Z " fill="#E2F9ED" transform="translate(149,226)"/>
<path d="M0 0 C0.99 0 1.98 0 3 0 C3 2.64 3 5.28 3 8 C2.01 8 1.02 8 0 8 C0 5.36 0 2.72 0 0 Z " fill="#DDF7E9" transform="translate(95,226)"/>
</svg>
