<!-- <svg width="1386" height="1032" viewBox="0 0 1386 1032" fill="none" xmlns="http://www.w3.org/2000/svg">
<rect width="1386" height="1032" fill="white"/>
<path d="M982.422 695.89H1060.19V695.84H1103.01V523.867H1017.38V610.174H982.432C934.72 610.174 896.069 571.559 896.069 523.887C896.069 476.216 934.72 437.601 982.432 437.601V351.884C887.347 351.884 810.286 428.874 810.286 523.877C810.286 618.88 887.337 695.89 982.422 695.89Z" fill="black"/>
<path fill-rule="evenodd" clip-rule="evenodd" d="M791.951 695.84C696.876 695.84 619.835 618.86 619.835 523.867C619.835 428.874 696.886 351.894 791.951 351.894V437.61C744.259 437.61 705.618 476.215 705.618 523.867C705.618 571.518 744.259 610.123 791.951 610.123V695.84Z" fill="black"/>
<path d="M423.383 351.903H345.612V351.953H302.791V523.927H388.424V437.62H423.373C471.086 437.62 509.736 476.235 509.736 523.907C509.736 571.578 471.086 610.193 423.373 610.193V695.91C518.459 695.91 595.519 618.92 595.519 523.917C595.519 428.913 518.469 351.903 423.383 351.903Z" fill="black"/>
</svg> -->

<svg width="300" height="200" viewBox="0 0 1300 900" fill="none" xmlns="http://www.w3.org/2000/svg">
<rect width="900" height="800" fill="white" />
<path d="M0 4450 l0 -4450 5100 0 5100 0 0 4450 0 4450 -5100 0 -5100 0 0
-4450z m4209 3820 c157 -9 373 -40 411 -60 9 -4 31 -11 49 -15 41 -9 192 -68
241 -94 39 -21 95 -52 131 -73 44 -25 164 -122 225 -183 88 -87 175 -202 221
-292 12 -23 26 -50 32 -60 21 -38 61 -132 61 -143 0 -5 4 -18 10 -28 18 -32
49 -164 81 -347 6 -33 12 -177 13 -320 1 -257 1 -260 -23 -298 -12 -21 -42
-48 -65 -60 -41 -22 -44 -22 -536 -22 l-495 0 -43 28 c-67 44 -79 82 -86 277
-13 409 -124 554 -461 601 -105 15 -860 6 -905 -11 -19 -7 -61 -22 -92 -34
-109 -39 -189 -116 -224 -214 -9 -26 -20 -56 -24 -67 -25 -60 -43 -241 -44
-445 -1 -232 5 -271 60 -365 72 -125 278 -237 504 -274 30 -5 62 -12 70 -15 8
-3 74 -10 145 -16 72 -6 164 -15 205 -20 41 -6 109 -14 150 -20 329 -41 787
-152 1035 -250 205 -80 314 -145 437 -259 71 -66 192 -208 210 -247 8 -17 -14
-61 -131 -262 -78 -133 -141 -245 -141 -249 0 -3 -6 -14 -14 -22 -7 -9 -25
-37 -40 -63 -61 -112 -86 -155 -218 -380 -76 -130 -138 -241 -138 -246 0 -6
-4 -12 -8 -14 -5 -1 -22 -28 -39 -58 -58 -107 -88 -157 -225 -391 -76 -131
-138 -242 -138 -247 0 -6 -4 -12 -8 -14 -5 -1 -22 -28 -39 -58 -50 -90 -68
-123 -233 -405 -86 -148 -168 -290 -182 -315 -53 -95 -75 -133 -235 -410 -343
-591 -462 -796 -482 -833 -12 -20 -30 -52 -40 -71 -11 -18 -25 -44 -33 -57 -7
-13 -15 -26 -18 -29 -3 -3 -18 -30 -34 -60 -36 -68 -67 -113 -73 -106 -2 2 1
15 8 28 7 12 14 25 14 28 0 3 11 27 23 54 12 27 22 50 22 53 0 2 10 25 21 51
12 26 30 67 41 92 10 25 23 54 28 65 5 11 19 43 31 70 11 28 27 64 34 80 8 17
32 75 55 129 23 54 45 106 50 115 4 9 20 45 35 81 14 36 30 74 35 85 5 11 16
38 26 60 9 22 25 58 34 80 39 88 50 113 74 172 14 34 26 64 26 67 0 2 -183 6
-407 9 -225 4 -433 10 -463 16 -269 47 -458 120 -659 252 -89 59 -241 197
-289 264 -12 17 -37 51 -56 76 -40 53 -122 208 -153 289 -20 53 -34 99 -67
220 -31 116 -50 311 -50 535 -1 208 0 222 21 261 12 23 39 52 60 65 l38 24
505 0 505 0 37 -23 c56 -35 78 -90 78 -196 0 -122 27 -329 52 -401 65 -186
177 -259 451 -296 49 -7 228 -9 475 -6 424 5 433 6 586 63 93 35 179 131 223
249 50 135 70 495 34 631 -46 176 -157 291 -371 383 -30 13 -62 27 -70 31 -9
4 -43 13 -75 20 -33 7 -69 16 -80 21 -11 4 -65 13 -120 19 -55 5 -163 17 -240
25 -77 8 -151 18 -165 21 -14 3 -63 12 -110 20 -202 33 -409 73 -435 84 -11 5
-40 13 -65 19 -25 5 -76 18 -115 29 -38 11 -90 25 -115 32 -25 6 -54 15 -65
20 -11 5 -56 21 -100 36 -183 63 -236 86 -326 145 -95 63 -153 113 -231 203
-140 162 -229 320 -293 526 -52 164 -53 170 -75 328 -17 122 -20 198 -20 534
0 429 5 485 61 726 6 26 15 52 19 57 4 6 10 24 14 40 19 82 114 272 187 373
64 87 245 261 334 320 230 153 517 244 823 261 200 12 1128 12 1331 1z m3457
-96 c-9 -16 -25 -51 -36 -79 -12 -27 -25 -59 -30 -70 -5 -11 -19 -42 -31 -70
-11 -27 -27 -63 -34 -80 -8 -16 -48 -111 -90 -210 -42 -99 -80 -189 -85 -200
-11 -25 -46 -106 -72 -165 -10 -25 -23 -54 -28 -65 -56 -126 -130 -305 -130
-313 0 -5 50 -11 118 -14 106 -4 121 -7 165 -32 77 -45 107 -94 138 -221 32
-135 71 -280 79 -300 5 -11 14 -45 20 -75 6 -30 14 -62 18 -70 3 -8 11 -37 17
-65 7 -27 20 -77 29 -110 10 -33 24 -89 32 -125 9 -36 19 -74 24 -85 4 -11 16
-51 25 -90 34 -140 44 -181 59 -235 8 -30 24 -89 35 -130 11 -41 25 -97 31
-125 6 -27 15 -59 20 -70 5 -11 13 -40 19 -65 18 -84 72 -295 81 -315 5 -11
15 -49 23 -85 9 -36 22 -90 31 -120 31 -115 48 -177 62 -240 9 -36 18 -72 21
-80 4 -8 12 -37 18 -65 18 -72 81 -307 88 -325 3 -8 10 -35 15 -60 19 -86 44
-185 52 -205 5 -11 13 -40 19 -65 5 -25 19 -79 30 -120 11 -41 26 -97 31 -125
6 -27 14 -57 17 -65 3 -8 22 -73 40 -145 19 -71 41 -155 49 -185 9 -30 22 -84
30 -120 9 -36 18 -72 21 -80 4 -8 12 -37 19 -65 7 -27 20 -77 29 -110 9 -33
23 -89 31 -125 8 -36 19 -74 24 -85 5 -11 13 -40 19 -65 10 -47 41 -167 67
-260 15 -54 24 -92 59 -235 9 -38 21 -79 25 -90 8 -19 61 -220 85 -320 6 -27
14 -57 17 -65 8 -18 36 -130 48 -187 5 -23 16 -66 25 -95 22 -71 31 -108 55
-209 19 -78 19 -88 5 -122 -31 -75 -4 -72 -610 -72 -596 0 -578 -2 -622 64
-12 18 -25 50 -28 70 -4 20 -10 45 -14 56 -7 18 -64 240 -122 480 -23 93 -34
138 -84 330 -20 77 -43 169 -51 204 -8 35 -17 67 -20 72 -3 5 -408 9 -955 9
l-949 0 -10 -23 c-6 -12 -17 -51 -26 -87 -8 -36 -22 -90 -29 -120 -8 -30 -23
-91 -34 -135 -11 -44 -27 -107 -36 -140 -9 -33 -23 -89 -31 -124 -8 -35 -16
-67 -19 -71 -3 -4 -11 -36 -19 -71 -8 -35 -35 -145 -60 -243 -48 -188 -71
-235 -124 -259 -40 -18 -1098 -17 -1129 1 -35 19 -56 68 -50 116 2 22 19 95
37 161 17 66 40 152 50 190 16 62 64 245 106 405 8 30 21 80 29 110 18 71 52
200 71 270 9 30 21 80 29 110 7 30 22 90 34 133 12 42 30 112 42 155 12 42 25
93 29 112 4 19 18 71 30 115 12 44 30 112 40 150 29 112 78 296 93 350 8 28
67 139 131 248 64 108 116 200 116 204 0 3 6 14 14 22 7 9 25 37 40 64 69 125
61 110 586 1017 145 251 168 291 218 380 37 66 261 452 272 470 6 8 16 26 22
40 7 14 15 27 19 30 3 3 19 30 36 60 16 30 42 75 57 100 15 25 29 53 33 63 3
9 9 17 14 17 5 0 9 5 9 11 0 6 62 117 138 247 132 225 157 268 218 380 15 26
33 54 40 63 8 8 14 19 14 23 0 4 74 134 164 289 90 155 247 426 349 602 102
176 194 336 206 355 11 19 25 44 30 55 5 11 68 120 140 243 72 123 131 228
131 235 0 8 3 8 10 1 8 -8 6 -20 -4 -40z" fill= "black"/>
<path d="M6545 5603 c-15 -65 -31 -127 -35 -138 -4 -11 -20 -74 -35 -140 -15
-66 -31 -131 -35 -145 -4 -14 -18 -65 -30 -115 -12 -49 -28 -115 -36 -145 -8
-30 -18 -73 -23 -95 -13 -57 -59 -243 -73 -290 -6 -22 -17 -65 -24 -95 -12
-52 -35 -145 -70 -285 -43 -169 -80 -320 -98 -395 -8 -30 -19 -75 -25 -100
-50 -194 -65 -253 -77 -309 -8 -35 -16 -67 -19 -71 -3 -5 -11 -39 -19 -77 -8
-37 -25 -111 -39 -163 -13 -52 -27 -107 -31 -122 l-6 -28 725 0 c399 0 725 2
725 5 0 3 -4 13 -9 23 -5 9 -21 71 -36 137 -15 66 -31 131 -35 145 -5 14 -12
41 -15 60 -3 19 -10 44 -15 55 -5 11 -15 52 -24 90 -8 39 -21 97 -30 130 -8
33 -22 89 -30 125 -8 36 -18 73 -21 82 -4 9 -13 43 -20 75 -7 32 -21 87 -30
123 -9 36 -24 99 -34 140 -10 41 -20 82 -23 90 -3 8 -18 65 -33 125 -55 223
-67 271 -79 325 -8 30 -19 75 -25 100 -63 244 -96 376 -111 450 -5 25 -17 70
-25 100 -25 88 -33 119 -60 235 -40 173 -54 215 -74 215 -14 0 -23 -23 -46
-117z" fill= "black"/>
</svg>
